<svg width="104" height="105" viewBox="0 0 104 105" fill="none" xmlns="http://www.w3.org/2000/svg">
<g clip-path="url(#clip0)" filter="url(#filter0_d)">
<rect width="56" height="56" transform="translate(24 11.5)" fill="#3D55F9"/>
<path d="M70.9392 19.317C68.4541 14.3354 62.4012 12.3115 57.4197 14.7966C56.4441 15.2832 55.5542 15.9247 54.7843 16.6962L52.7929 18.6876C52.3555 19.1248 51.6465 19.1248 51.2093 18.6876L49.2157 16.6962C45.2767 12.7572 38.8903 12.7572 34.9513 16.6962C31.0123 20.6352 31.0123 27.0216 34.9513 30.9605L49.9369 46.5935C51.0294 47.733 52.8389 47.7708 53.9781 46.6784C54.007 46.6506 54.0352 46.6224 54.063 46.5935L69.0486 30.9605C72.121 27.8918 72.8828 23.2002 70.9392 19.317Z" fill="white"/>
<path d="M34.3578 49.2125C33.017 50.1076 32.5734 51.8734 33.3318 53.296L36.32 58.2621C36.6392 58.7923 36.4682 59.4807 35.9381 59.7999C35.408 60.1191 34.7195 59.9482 34.4003 59.418L31.3718 54.378C30.4565 52.6072 30.5635 50.4815 31.6518 48.8116C31.7739 48.6286 31.8394 48.4135 31.84 48.1933V41.7399C31.84 39.8843 30.3357 38.3799 28.48 38.3799C26.6243 38.3799 25.12 39.8843 25.12 41.7399V53.3229L25.12 53.3252C25.12 55.6147 25.8994 57.8361 27.33 59.6236L33.296 67.0788C33.5082 67.3444 33.8296 67.4994 34.1696 67.4999H43.04C43.6585 67.4999 44.16 66.9983 44.16 66.3799V59.6375L44.16 59.6373C44.1619 57.6439 43.5717 55.6949 42.4642 54.0375C38.2374 49.6359 36.9158 47.5056 34.3578 49.2125Z" fill="white"/>
<path d="M75.52 38.3799C73.6644 38.3799 72.16 39.8843 72.16 41.7399V48.1933C72.1606 48.4135 72.226 48.6286 72.3481 48.8116C73.4365 50.4815 73.5434 52.6072 72.6281 54.378L69.5997 59.418C69.2804 59.9482 68.5921 60.1191 68.0619 59.7999C67.5317 59.4807 67.3608 58.7923 67.68 58.2621L70.6681 53.296C71.4266 51.8734 70.9828 50.1076 69.6422 49.2125C67.0841 47.5056 65.7625 49.6359 61.5357 54.0442C60.4282 55.7018 59.838 57.6508 59.84 59.6442V66.3799C59.84 66.9983 60.3415 67.4999 60.96 67.4999H69.8304C70.1704 67.4994 70.4918 67.3444 70.704 67.0788L76.6713 59.6218C78.1016 57.8338 78.8804 55.6124 78.88 53.3229V41.7399C78.88 39.8843 77.3756 38.3799 75.52 38.3799Z" fill="white"/>
</g>
<defs>
<filter id="filter0_d" x="0" y="0.0713997" width="104" height="104" filterUnits="userSpaceOnUse" color-interpolation-filters="sRGB">
<feFlood flood-opacity="0" result="BackgroundImageFix"/>
<feColorMatrix in="SourceAlpha" type="matrix" values="0 0 0 0 0 0 0 0 0 0 0 0 0 0 0 0 0 0 127 0" result="hardAlpha"/>
<feOffset dy="12.5714"/>
<feGaussianBlur stdDeviation="12"/>
<feColorMatrix type="matrix" values="0 0 0 0 0.239216 0 0 0 0 0.333333 0 0 0 0 0.976471 0 0 0 0.2 0"/>
<feBlend mode="normal" in2="BackgroundImageFix" result="effect1_dropShadow"/>
<feBlend mode="normal" in="SourceGraphic" in2="effect1_dropShadow" result="shape"/>
</filter>
<clipPath id="clip0">
<rect width="56" height="56" fill="white" transform="translate(24 11.5)"/>
</clipPath>
</defs>
</svg>
