<svg width="48" height="49" viewBox="0 0 48 49" fill="none" xmlns="http://www.w3.org/2000/svg">
<path d="M22.556 12.7678C22.5833 12.5718 22.4923 12.378 22.324 12.2738C19.8 10.6998 14.066 8.21783 3.014 8.07383C2.46177 8.0661 2.00783 8.50748 2.0001 9.05972C2.00003 9.06442 2 9.06911 2 9.07383V40.6039C2 41.1508 2.43929 41.5961 2.98611 41.6039C13.2881 41.7359 18.9741 43.9039 21.7561 45.4679C21.9094 45.5569 22.0987 45.5569 22.2521 45.4679C22.4057 45.3783 22.5002 45.2137 22.5001 45.0359V13.3918C22.5058 13.1829 22.5245 12.9745 22.556 12.7678Z" fill="#3D55F9"/>
<path d="M38.5 35.3919C38.4989 36.1226 37.972 36.7463 37.252 36.8698C34.0096 37.5007 31.0245 39.0711 28.668 41.3858C27.8805 42.2602 27.1917 43.2186 26.614 44.2439C26.4802 44.4855 26.5675 44.7898 26.8091 44.9236C26.9515 45.0026 27.1235 45.0071 27.2701 44.9359C32.8731 42.5516 38.9277 41.4146 45.0141 41.6039C45.5608 41.5962 46 41.1506 46 40.6039V9.07381V9.07373C46 8.52144 45.5523 8.07373 45 8.07373C44.9952 8.07373 44.9907 8.07376 44.9859 8.07384C42.7579 8.10184 40.7579 8.23181 38.9459 8.42581C38.6917 8.45344 38.4995 8.66824 38.5 8.92384V35.3919Z" fill="#3D55F9"/>
<path d="M35.136 34.2998C35.3512 34.2382 35.4997 34.0417 35.5 33.8177V3.96782C35.5003 3.69166 35.2765 3.46758 35.0005 3.46729C34.9416 3.46723 34.8832 3.47755 34.828 3.49782C32.4923 4.28163 30.3797 5.61582 28.668 7.38782C26.996 9.00766 25.8858 11.1199 25.5 13.4158V39.1198C25.4998 39.3958 25.7234 39.6201 25.9996 39.6201C26.1438 39.6204 26.281 39.5582 26.376 39.4497L26.422 39.3977C28.8027 36.9294 31.8179 35.1654 35.136 34.2998Z" fill="#3D55F9"/>
<rect x="0.5" y="1" width="47" height="47" stroke="#3D55F9" stroke-opacity="0.08"/>
</svg>
