<svg width="48" height="49" viewBox="0 0 48 49" fill="none" xmlns="http://www.w3.org/2000/svg">
<g clip-path="url(#clip0)">
<path d="M48 21C48 19.8954 47.1045 19 46 19H2C0.895429 19 0 19.8954 0 21C4.82821e-08 22.1046 0.895429 23 2 23H3.84C4.11117 22.9999 4.33256 23.2169 4.338 23.488V23.488C4.49544 30.9968 8.94024 37.752 15.774 40.868C16.0254 40.9821 16.1368 41.2784 16.0227 41.5299C15.9761 41.6325 15.8962 41.7165 15.796 41.768C13.6137 42.8987 11.6861 44.464 10.132 46.368C9.78293 46.796 9.84693 47.4259 10.275 47.7749C10.4531 47.9203 10.676 47.9997 10.906 48H37.0939C37.6461 47.9995 38.0936 47.5512 38.0931 46.9989C38.0928 46.7691 38.0133 46.5461 37.868 46.368C36.3136 44.4635 34.3853 42.8979 32.2019 41.768C31.9563 41.6419 31.8597 41.3403 31.9859 41.0947C32.0373 40.9944 32.1213 40.9147 32.224 40.868C39.0584 37.7525 43.5043 30.9973 43.6619 23.488C43.6675 23.2169 43.8888 22.9999 44.16 23H46C47.1045 23 48 22.1046 48 21Z" fill="#3D55F9"/>
<path d="M28.0104 14.2439C27.5931 14.6054 27.5475 15.2369 27.9091 15.6545C28.0989 15.8737 28.3744 15.9997 28.6645 15.9999H36.9125C37.2027 15.9998 37.4787 15.8735 37.6685 15.6539L46.4584 5.51189C47.4256 4.33237 47.2536 2.59203 46.0741 1.62479C45.0563 0.79012 43.5907 0.789744 42.5725 1.6239L28.0104 14.2439Z" fill="#3D55F9"/>
</g>
<rect x="0.5" y="1" width="47" height="47" stroke="#3D55F9" stroke-opacity="0.08"/>
<defs>
<clipPath id="clip0">
<rect y="0.5" width="48" height="48" fill="white"/>
</clipPath>
</defs>
</svg>
