<svg width="105" height="105" viewBox="0 0 105 105" fill="none" xmlns="http://www.w3.org/2000/svg">
<g clip-path="url(#clip0)" filter="url(#filter0_d)">
<rect width="56" height="56" transform="translate(24.8438 11.5)" fill="#3D55F9"/>
<path d="M57.8308 13.5502C60.5646 16.2839 60.5646 20.7161 57.8308 23.4497C55.0971 26.1834 50.6649 26.1834 47.9314 23.4497C45.1977 20.7161 45.1977 16.2839 47.9314 13.5502C50.6649 10.8166 55.0971 10.8166 57.8308 13.5502Z" fill="white"/>
<path d="M79.5861 32.514C78.1014 31.2762 75.8943 31.4763 74.6567 32.961C74.6562 32.9614 74.656 32.9617 74.6558 32.962C73.6296 34.1928 72.1143 34.9103 70.5118 34.9243H70.4581C68.8745 34.925 67.3692 34.2359 66.3351 33.0367C64.5571 30.988 64.5571 30.9694 64.3984 30.813C63.2369 29.6489 61.6586 28.9963 60.0141 29H45.6735H45.6734C44.0295 28.9959 42.4519 29.6486 41.2915 30.813C41.1305 30.9694 41.1048 31.0184 39.3548 33.0367C38.3197 34.236 36.8137 34.925 35.2295 34.9243H35.1758C33.574 34.9117 32.0587 34.196 31.0318 32.9667C29.731 31.5368 27.5174 31.4322 26.0875 32.733C24.742 33.9571 24.5584 36.0077 25.6651 37.4513C28.0051 40.2555 31.4583 41.891 35.1104 41.9243H35.2294C38.384 41.9376 41.4224 40.7353 43.7134 38.5667C43.9485 38.3464 44.3176 38.3583 44.538 38.5933C44.6391 38.7011 44.6956 38.8434 44.6958 38.9913L44.7261 51.26C44.7277 51.7537 45.0398 52.1929 45.5054 52.3567L52.0691 54.6737C52.5712 54.8508 53.1186 54.8508 53.6208 54.6737L60.1821 52.3567C60.6476 52.1929 60.9598 51.7537 60.9614 51.26L60.9918 38.9867C60.9922 38.6644 61.2538 38.4038 61.576 38.4043C61.724 38.4045 61.8661 38.4607 61.9741 38.562C64.2652 40.7301 67.3037 41.9318 70.4581 41.9173H70.5771C74.2344 41.8861 77.6926 40.2467 80.0318 37.435C81.2642 35.9519 81.0647 33.7515 79.5861 32.514Z" fill="white"/>
<path d="M66.5405 52.5946L57.9071 55.6419C57.6745 55.7234 57.5188 55.9434 57.5198 56.1903C57.52 56.4369 57.6749 56.6572 57.9071 56.7409L62.8888 58.5003C63.6984 58.7833 64.4351 59.2432 65.0448 59.8466C65.3626 60.1609 65.832 60.2659 66.2534 60.1173L68.8668 59.1839C70.6784 58.5096 71.6005 56.4945 70.9264 54.6829C70.2677 52.9131 68.3241 51.9849 66.5335 52.5853L66.5405 52.5946Z" fill="white"/>
<path d="M62.1141 60.7013L39.1494 52.5953C37.3378 51.921 35.3227 52.8431 34.6485 54.6547C33.9743 56.4663 34.8963 58.4816 36.708 59.1557C36.7438 59.169 36.7798 59.1818 36.8161 59.194L59.7808 67.3C60.1553 67.4334 60.5498 67.5014 60.9474 67.5007C62.8804 67.4997 64.4467 65.9322 64.446 63.9992C64.4453 62.5171 63.5113 61.196 62.1141 60.7013Z" fill="white"/>
</g>
<defs>
<filter id="filter0_d" x="0.84375" y="0.0713997" width="104" height="104" filterUnits="userSpaceOnUse" color-interpolation-filters="sRGB">
<feFlood flood-opacity="0" result="BackgroundImageFix"/>
<feColorMatrix in="SourceAlpha" type="matrix" values="0 0 0 0 0 0 0 0 0 0 0 0 0 0 0 0 0 0 127 0" result="hardAlpha"/>
<feOffset dy="12.5714"/>
<feGaussianBlur stdDeviation="12"/>
<feColorMatrix type="matrix" values="0 0 0 0 0.239216 0 0 0 0 0.333333 0 0 0 0 0.976471 0 0 0 0.2 0"/>
<feBlend mode="normal" in2="BackgroundImageFix" result="effect1_dropShadow"/>
<feBlend mode="normal" in="SourceGraphic" in2="effect1_dropShadow" result="shape"/>
</filter>
<clipPath id="clip0">
<rect width="56" height="56" fill="white" transform="translate(24.8438 11.5)"/>
</clipPath>
</defs>
</svg>
